<svg width="263" height="203" viewBox="0 0 263 203" fill="none" xmlns="http://www.w3.org/2000/svg">
<path d="M251.549 0H79.4236C73.0996 0 67.9727 4.24182 67.9727 9.47516C67.9727 12.8033 70.0485 15.728 73.1856 17.4187V25.8492C74.042 25.815 74.903 25.7965 75.7692 25.7965H87.9601V18.9503H243.012V101.471H139.104C138.301 102.7 137.355 103.869 136.267 104.954C135.743 106.128 135.168 107.303 134.546 108.472C133.732 110.205 132.799 111.955 131.765 113.698H250.399C254.48 113.698 257.787 110.959 257.787 107.585V17.4191C260.924 15.728 263 12.8033 263 9.47564C263 4.2423 257.872 0 251.549 0Z" fill="url(#paint0_linear_697_80)"/>
<path d="M142.912 54.4645C141.018 53.7758 138.9 53.8584 137.129 54.6017C138.921 58.8084 139.945 63.3122 140.059 67.9973L141.908 66.3275L175.613 78.5765C178.513 79.6297 181.909 78.8779 183.785 76.7662L204.463 53.4924L206.2 63.5096C206.684 66.301 209.577 68.3144 212.888 68.3144C213.208 68.3144 213.532 68.2968 213.857 68.256C217.555 67.8184 220.123 64.981 219.593 61.9215L215.485 38.2229C214.954 35.161 211.525 33.038 207.828 33.4756L179.186 36.873C175.488 37.3135 172.92 40.1499 173.451 43.2094C173.98 46.2694 177.409 48.3953 181.107 47.9568L193.939 46.4346L176.092 66.5212L142.912 54.4645Z" fill="url(#paint1_linear_697_80)"/>
<path d="M137.352 127.563L111.678 121.125C111.059 119.573 109.684 118.23 107.761 117.095C109.876 115.148 111.662 113.179 113.021 111.549C116.243 107.683 118.923 103.52 120.781 99.5013C121.695 97.8078 122.475 96.1077 123.106 94.4379C125.607 92.7045 127.078 90.1163 127.078 87.4V80.7475C127.078 78.838 126.352 76.9708 125.016 75.4226V66.057C125.016 49.6275 108.863 36.2627 89.0104 36.2627H77.3369C57.4831 36.2627 41.3297 49.6275 41.3297 66.057V75.4235C39.9949 76.9718 39.2687 78.8395 39.2687 80.7475V87.4C39.2687 90.1144 40.74 92.6998 43.2398 94.437C43.8708 96.1039 44.6515 97.8078 45.5652 99.5051C47.422 103.52 50.1048 107.684 53.3256 111.545C54.6833 113.177 56.4701 115.148 58.5868 117.094C56.6629 118.23 55.2874 119.572 54.6673 121.125L28.9954 127.563C10.9204 131.861 0.0894831 196.482 0.0894831 196.482H0.0917775C0.0361374 196.768 0 197.061 0 197.36C0 200.476 3.04931 203 6.81448 203H159.532C163.297 203 166.347 200.476 166.347 197.36C166.347 194.656 155.425 131.861 137.352 127.563ZM76.2648 144.291C76.1673 145.072 75.5019 145.726 74.5882 145.936C74.3828 145.983 74.1752 146.006 73.9687 146.006C73.2563 146.006 72.5691 145.732 72.1262 145.244L65.6416 138.129C65.3393 137.797 65.1758 137.392 65.1764 136.977L65.185 125.565C65.1856 124.894 65.6095 124.274 66.3018 123.929C66.9959 123.584 67.8563 123.564 68.5716 123.878C70.4588 124.704 72.3442 125.258 74.1746 125.527C75.2759 125.688 76.079 126.481 76.079 127.407V132.168C76.4077 132.276 76.7065 132.445 76.948 132.667C77.3862 133.069 77.5979 133.603 77.5308 134.141L76.2648 144.291ZM100.697 138.129L94.2217 145.242C93.7783 145.727 93.0911 146.002 92.3775 146.002C92.1722 146.002 91.9645 145.98 91.7603 145.932C90.846 145.721 90.1806 145.07 90.0831 144.288L88.8189 134.141C88.7512 133.603 88.9634 133.068 89.4011 132.667C89.6426 132.445 89.9408 132.276 90.2689 132.168V127.407C90.2689 126.481 91.0731 125.689 92.175 125.527C94.0037 125.258 95.888 124.705 97.7752 123.879C98.4916 123.565 99.3526 123.587 100.046 123.93C100.738 124.275 101.162 124.897 101.162 125.565L101.164 136.977C101.162 137.393 100.999 137.797 100.697 138.129ZM89.3735 115.424H76.9738C74.2343 115.424 68.9456 112.391 63.3013 105.617C58.8449 100.275 55.7485 94.3601 55.0201 89.7964L54.8944 89.0057L52.6551 87.8015C52.0006 87.4494 51.6054 86.8466 51.6054 86.1996V83.0561C51.6054 82.0001 52.6379 81.1467 53.9118 81.1467H54.8549V77.7407C54.8549 77.0169 55.3487 76.3547 56.1323 76.032C59.3101 74.7191 65.6152 72.5178 72.144 72.5178C77.3524 72.5178 81.6723 73.9517 84.9814 76.7795C89.1057 80.307 93.8574 82.094 99.1077 82.094C102.079 82.094 105.152 81.5136 108.238 80.3687C108.952 80.1044 109.78 80.1575 110.436 80.5078C110.744 80.673 110.996 80.8937 111.175 81.1467H112.434C113.709 81.1467 114.741 82.0005 114.741 83.0561V86.2006C114.741 86.8466 114.346 87.4494 113.691 87.8015L111.451 89.0057L111.327 89.7926C110.598 94.3582 107.502 100.274 103.045 105.618C97.4012 112.391 92.1125 115.424 89.3735 115.424Z" fill="url(#paint2_linear_697_80)"/>
<defs>
<linearGradient id="paint0_linear_697_80" x1="171.048" y1="43.1267" x2="167.87" y2="113.805" gradientUnits="userSpaceOnUse">
<stop stop-color="#005E61"/>
<stop offset="0.9999" stop-color="#08B3F4"/>
</linearGradient>
<linearGradient id="paint1_linear_697_80" x1="180.749" y1="50.7266" x2="179.54" y2="79.0979" gradientUnits="userSpaceOnUse">
<stop stop-color="#005E61"/>
<stop offset="0.9999" stop-color="#08B3F4"/>
</linearGradient>
<linearGradient id="paint2_linear_697_80" x1="87.9171" y1="99.5079" x2="79.9367" y2="202.75" gradientUnits="userSpaceOnUse">
<stop stop-color="#005E61"/>
<stop offset="0.9999" stop-color="#08B3F4"/>
</linearGradient>
</defs>
</svg>
