<svg width="131" height="142" viewBox="0 0 131 142" fill="none" xmlns="http://www.w3.org/2000/svg">
<path d="M122.46 23.0664L70.2685 1.01309C68.6787 0.344267 66.9744 0 65.2532 0C63.532 0 61.8277 0.344267 60.2379 1.01309L8.04622 23.0664C3.18043 25.1064 0 29.9305 0 35.2785C0 89.9983 31.1247 127.82 60.2107 140.115C63.4183 141.465 67.0337 141.465 70.2413 140.115C93.5373 130.273 130.479 96.2835 130.479 35.2785C130.479 29.9305 127.299 25.1064 122.46 23.0664ZM65.2668 123.023L65.2396 17.9942L113.055 38.2005C112.158 79.9365 90.7374 110.177 65.2668 123.023Z" fill="url(#paint0_linear_467_76)"/>
<defs>
<linearGradient id="paint0_linear_467_76" x1="27.5" y1="16" x2="100" y2="109.5" gradientUnits="userSpaceOnUse">
<stop stop-color="#0D90C2"/>
<stop offset="1" stop-color="#005E61"/>
</linearGradient>
</defs>
</svg>
