<svg width="131" height="133" viewBox="0 0 131 133" fill="none" xmlns="http://www.w3.org/2000/svg">
<path d="M65.2685 63.566C61.8918 63.566 59.1523 66.3417 59.1523 69.7686C59.4428 88.4409 57.0778 106.441 52.093 124.442C51.3973 126.954 52.641 132.322 57.9851 132.322C60.6558 132.322 63.11 130.533 63.8694 127.794C67.3175 115.412 71.7798 95.3826 71.3823 69.7686C71.3848 66.3443 68.6478 63.566 65.2685 63.566ZM65.0494 42.4437C49.4376 42.4256 38.5429 54.6085 38.7596 68.5694C38.9507 80.9591 37.8039 93.3565 35.3523 105.41C34.6667 108.765 36.7972 112.049 40.1026 112.74C43.4283 113.43 46.6445 111.277 47.33 107.922C49.9651 94.9769 51.196 81.6698 50.9921 68.3756C50.8876 61.6691 56.0686 54.8101 64.8684 54.8488C72.8476 54.9703 79.4328 61.3977 79.5526 69.1845C79.7488 81.6026 78.8365 94.0801 76.8487 106.284C76.2957 109.659 78.5536 112.853 81.8844 113.411C86.9737 114.272 88.7168 109.509 88.9131 108.302C91.0232 95.3723 91.9865 82.1453 91.7852 68.9907C91.5609 54.5697 79.5679 42.6608 65.0494 42.4437ZM36.8406 37.3317C34.2157 35.1763 30.3751 35.5743 28.237 38.2311C21.7079 46.372 18.1986 56.6527 18.3617 67.1764C18.5121 76.8886 17.7323 86.6293 16.0401 96.1347C15.4438 99.5074 17.6482 102.733 20.9739 103.343C26.0988 104.247 27.8726 99.5151 28.0815 98.3392C29.9139 88.0429 30.7574 77.4934 30.5943 66.9826C30.4745 59.2604 32.9389 52.0241 37.73 46.0567C39.8579 43.3999 39.4604 39.4949 36.8406 37.3317ZM64.7385 21.2231C60.8113 21.1172 56.8714 21.5953 53.0717 22.5076C49.7867 23.2984 47.753 26.6375 48.5278 29.9739C49.3076 33.3052 52.6053 35.3572 55.8902 34.5819C58.7063 33.9074 61.6166 33.6076 64.555 33.6283C83.7779 33.9203 99.6548 49.5224 99.9479 68.4092C100.098 78.1989 99.6217 88.0791 98.5258 97.7758C98.1436 101.179 100.552 104.257 103.906 104.645C108.167 105.149 110.407 101.575 110.679 99.1895C111.837 88.9084 112.339 78.5621 112.18 68.2154C111.783 42.6944 90.5008 21.6108 64.7385 21.2231ZM128.977 52.6107C128.248 49.2717 125.025 47.1318 121.686 47.889C118.388 48.6282 116.304 51.9362 117.033 55.283C118.233 60.8162 118.284 64.9513 118.23 71.2029C118.202 74.6325 120.919 77.4288 124.296 77.4572H124.347C127.703 77.4572 130.435 74.7151 130.463 71.3063C130.509 65.5741 130.565 59.9065 128.977 52.6107ZM118.753 29.165C106.342 11.2318 86.0333 0.333371 64.425 0.00515178C46.6394 -0.211938 30.1891 6.43774 17.954 18.8506C6.13682 30.85 -0.231756 46.7881 0.0332828 63.7443L0.00270137 69.2931C-0.0966882 72.7174 2.5588 75.5758 5.9355 75.674C5.99411 75.6791 6.05782 75.6791 6.11899 75.6791C9.41158 75.6791 12.1308 73.0172 12.2276 69.6575L12.2684 63.5479C12.0569 49.9798 17.1512 37.2232 26.6111 27.6247C36.4889 17.5972 49.8886 12.2035 64.2466 12.4129C81.9456 12.6791 98.5819 21.603 108.748 36.2902C110.687 39.0969 114.497 39.7662 117.265 37.8047C120.027 35.8354 120.695 31.9665 118.753 29.165Z" fill="url(#paint0_linear_467_83)"/>
<defs>
<linearGradient id="paint0_linear_467_83" x1="65.2396" y1="-8.38152e-07" x2="79.5" y2="121.5" gradientUnits="userSpaceOnUse">
<stop stop-color="#0D90C2"/>
<stop offset="0.840692" stop-color="#005E61"/>
</linearGradient>
</defs>
</svg>
