<svg width="131" height="103" viewBox="0 0 131 103" fill="none" xmlns="http://www.w3.org/2000/svg">
<path d="M119.606 0H10.8733C4.87032 0 0 4.93903 0 11.0267V91.8889C0 97.9765 4.87032 102.916 10.8733 102.916H119.606C125.609 102.916 130.479 97.9765 130.479 91.8889V11.0267C130.479 4.93903 125.609 0 119.606 0ZM39.8686 22.0533C47.865 22.0533 54.3663 28.6464 54.3663 36.7556C54.3663 44.8648 47.865 51.4578 39.8686 51.4578C31.8723 51.4578 25.371 44.8648 25.371 36.7556C25.371 28.6464 31.8723 22.0533 39.8686 22.0533ZM65.2396 76.4516C65.2396 78.8866 62.9743 80.8622 60.1654 80.8622H19.5719C16.763 80.8622 14.4977 78.8866 14.4977 76.4516V72.0409C14.4977 64.7357 21.3161 58.8089 29.7203 58.8089H30.8529C33.6392 59.9805 36.6746 60.6467 39.8686 60.6467C43.0627 60.6467 46.1208 59.9805 48.8844 58.8089H50.017C58.4211 58.8089 65.2396 64.7357 65.2396 72.0409V76.4516ZM115.981 64.3222C115.981 65.333 115.166 66.16 114.169 66.16H81.5495C80.5528 66.16 79.7373 65.333 79.7373 64.3222V60.6467C79.7373 59.6359 80.5528 58.8089 81.5495 58.8089H114.169C115.166 58.8089 115.981 59.6359 115.981 60.6467V64.3222ZM115.981 49.62C115.981 50.6308 115.166 51.4578 114.169 51.4578H81.5495C80.5528 51.4578 79.7373 50.6308 79.7373 49.62V45.9444C79.7373 44.9337 80.5528 44.1067 81.5495 44.1067H114.169C115.166 44.1067 115.981 44.9337 115.981 45.9444V49.62ZM115.981 34.9178C115.981 35.9286 115.166 36.7556 114.169 36.7556H81.5495C80.5528 36.7556 79.7373 35.9286 79.7373 34.9178V31.2422C79.7373 30.2314 80.5528 29.4044 81.5495 29.4044H114.169C115.166 29.4044 115.981 30.2314 115.981 31.2422V34.9178Z" fill="url(#paint0_linear_467_79)"/>
<defs>
<linearGradient id="paint0_linear_467_79" x1="20.5" y1="23" x2="102" y2="90.5" gradientUnits="userSpaceOnUse">
<stop offset="0.0729182" stop-color="#0D90C2"/>
<stop offset="1" stop-color="#00575A"/>
</linearGradient>
</defs>
</svg>
