<svg width="766" height="701" viewBox="0 0 766 701" fill="none" xmlns="http://www.w3.org/2000/svg">
<path d="M384.068 0.993416C382.275 -0.250334 379.375 -0.369088 377.587 0.880912L289.375 63.0622C287.587 64.3184 286.637 63.4997 286.637 61.3184V18.2497C286.637 16.0684 283.868 14.9122 281.681 14.9122H224.375C222.193 14.9122 221.306 16.0684 221.306 18.2497V107.075C221.306 109.256 219.418 112.043 217.625 113.293L1.24974 265.475C-0.537756 266.731 -0.437756 268.256 1.74349 268.256H97.9122C100.093 268.256 101.812 269 101.812 271.181V696.037C101.822 697.098 102.247 698.114 102.995 698.866C103.744 699.618 104.757 700.047 105.818 700.062H655.168C657.35 700.062 659.493 698.225 659.493 696.037V271.181C659.493 269 660.887 268.256 663.075 268.256H763.856C766.043 268.256 766.356 266.731 764.562 265.487L384.068 0.993416ZM531.968 248.268C539.895 248.268 547.497 251.417 553.102 257.022C558.707 262.627 561.856 270.229 561.856 278.156C561.856 286.083 558.707 293.685 553.102 299.29C547.497 304.895 539.895 308.043 531.968 308.043C524.042 308.043 516.44 304.895 510.835 299.29C505.23 293.685 502.081 286.083 502.081 278.156C502.081 270.229 505.23 262.627 510.835 257.022C516.44 251.417 524.042 248.268 531.968 248.268ZM390.737 424.975C396.497 424.975 402.022 427.263 406.095 431.336C410.168 435.409 412.456 440.933 412.456 446.693C412.456 452.454 410.168 457.978 406.095 462.051C402.022 466.124 396.497 468.412 390.737 468.412C384.977 468.412 379.453 466.124 375.38 462.051C371.307 457.978 369.018 452.454 369.018 446.693C369.018 440.933 371.307 435.409 375.38 431.336C379.453 427.263 384.977 424.975 390.737 424.975ZM246.106 248.212C254.033 248.212 261.635 251.361 267.24 256.966C272.845 262.571 275.993 270.173 275.993 278.1C275.993 286.026 272.845 293.628 267.24 299.233C261.635 304.838 254.033 307.987 246.106 307.987C238.179 307.987 230.577 304.838 224.972 299.233C219.367 293.628 216.218 286.026 216.218 278.1C216.218 270.173 219.367 262.571 224.972 256.966C230.577 251.361 238.179 248.212 246.106 248.212ZM597.562 478.55C593.434 478.55 589.474 476.91 586.553 473.992C583.633 471.074 581.991 467.116 581.987 462.987L581.968 367.875C581.967 367.446 581.796 367.035 581.493 366.732C581.189 366.429 580.778 366.258 580.35 366.256H577.05C576.621 366.258 576.21 366.429 575.907 366.732C575.604 367.035 575.433 367.446 575.431 367.875V634.731C575.431 640.058 573.315 645.168 569.547 648.935C565.78 652.702 560.671 654.818 555.343 654.818C550.016 654.818 544.907 652.702 541.139 648.935C537.372 645.168 535.256 640.058 535.256 634.731V477.712C535.256 476.568 534.725 476.087 533.593 476.087H530.356C529.225 476.087 528.693 476.562 528.693 477.712V634.731C528.693 640.058 526.577 645.168 522.81 648.935C519.043 652.702 513.934 654.818 508.606 654.818C503.278 654.818 498.169 652.702 494.402 648.935C490.635 645.168 488.518 640.058 488.518 634.731V367.875C488.517 367.446 488.346 367.035 488.043 366.732C487.739 366.429 487.329 366.258 486.9 366.256H483.6C483.171 366.258 482.76 366.429 482.457 366.732C482.345 366.843 482.252 366.969 482.178 367.106C481.923 367.575 481.937 368.139 481.85 368.666L469.2 445.168C468.737 446.918 468.137 448.05 467.418 449.337C464.104 455.255 433.874 514.258 432.134 517.653C432.078 517.763 432.024 517.859 431.974 517.972C431.735 518.507 431.529 519.432 431.403 520.087C431.305 520.589 431.268 521.024 431.268 521.536C431.263 531.093 431.202 636.415 431.112 637.268C430.093 646.393 421.831 654.825 411.768 654.825C401.118 654.825 393.381 645.95 393.225 636.231L393.206 586.993C393.204 586.565 393.033 586.154 392.73 585.851C392.427 585.547 392.016 585.376 391.587 585.375H389.156C388.727 585.376 388.316 585.547 388.013 585.851C387.71 586.154 387.539 586.565 387.537 586.993L387.531 635.975C387.375 645.693 377.775 654.825 367.125 654.825C356.475 654.825 348.012 645.643 347.856 635.925V518.937C347.856 518.043 347.493 516.687 347.043 515.912L311.837 449.818C310.691 447.805 309.849 445.634 309.337 443.375C309.278 443.214 287.987 373.866 286.02 367.46C285.913 367.111 285.814 366.811 285.606 366.511C285.257 366.006 284.573 365.331 283.418 365.331H280.131C279.206 365.318 278.662 366.106 278.906 366.993L325.5 519.475C325.75 520.362 325.5 521.918 323.875 521.918H291.187C290.262 521.918 289.587 522.668 289.587 523.593L289.593 634.725C289.593 640.052 287.477 645.162 283.71 648.929C279.943 652.696 274.833 654.812 269.506 654.812C264.178 654.812 259.069 652.696 255.302 648.929C251.535 645.162 249.418 640.052 249.418 634.725L249.412 523.593C249.412 523.149 249.236 522.723 248.922 522.409C248.607 522.095 248.181 521.918 247.737 521.918H244.475C244.03 521.918 243.604 522.095 243.29 522.409C242.976 522.723 242.8 523.149 242.8 523.593L242.793 634.725C242.793 640.052 240.677 645.162 236.91 648.929C233.143 652.696 228.034 654.812 222.706 654.812C217.378 654.812 212.269 652.696 208.502 648.929C204.735 645.162 202.618 640.052 202.618 634.725L202.625 523.593C202.625 522.668 201.95 521.918 201.025 521.918H168.337C166.712 521.918 166.462 520.362 166.712 519.475L213.306 366.993C213.55 366.106 213.012 365.312 212.081 365.331H212.075H208.793C208.267 365.337 207.754 365.497 207.317 365.791C206.881 366.085 206.54 366.501 206.337 366.987L183.056 442.875C181.762 446.724 179.017 449.916 175.405 451.771C171.792 453.626 167.598 453.997 163.716 452.806C159.834 451.615 156.57 448.956 154.62 445.394C152.67 441.832 152.187 437.65 153.275 433.737L176.612 357.518C180.175 345.15 188.837 316.987 213.318 316.987H278.981C305.195 316.987 312.015 345.032 315.577 357.44C315.593 357.494 315.592 357.494 315.609 357.548C316.091 359.125 335.643 423.059 338.836 433.61C339.139 434.611 339.535 435.524 340.031 436.445C344.524 444.792 357.275 471.079 359.263 475.183C359.444 475.557 359.623 475.914 359.914 476.21C360.108 476.408 360.328 476.579 360.569 476.718C360.99 476.963 361.463 477.104 361.95 477.131H416.518C418.431 477.131 419.456 476.518 420.362 474.956L438.728 436.861C439.173 435.938 439.471 434.971 439.617 433.956C442.572 413.347 450.812 355.804 450.812 354.756C450.812 333.437 467.206 317.043 487.706 317.043H576.25C596.743 317.043 613.143 333.437 613.15 354.756L613.156 462.975C613.148 467.106 611.501 471.066 608.578 473.985C605.655 476.905 601.694 478.546 597.562 478.55Z" fill="url(#paint0_linear_695_66)"/>
<defs>
<linearGradient id="paint0_linear_695_66" x1="233.5" y1="213" x2="633" y2="700" gradientUnits="userSpaceOnUse">
<stop stop-color="#0D90C2"/>
<stop offset="0.843157" stop-color="#005E61"/>
</linearGradient>
</defs>
</svg>
