<svg width="13" height="12" viewBox="0 0 13 12" fill="none" xmlns="http://www.w3.org/2000/svg">
<g clip-path="url(#clip0_433_144)">
<path d="M10.2222 0H2.25001C1.17044 0 0.256958 0.916667 0.256958 2V10C0.256958 11.0833 1.17044 12 2.25001 12H10.2222C11.3018 12 12.2153 11.0833 12.2153 10V2C12.2153 0.916667 11.3018 0 10.2222 0ZM11.2188 10C11.2188 10.5833 10.8035 11 10.2222 11H2.25001C1.66871 11 1.25349 10.5833 1.25349 10V2C1.25349 1.41667 1.66871 1 2.25001 1H10.2222C10.8035 1 11.2188 1.41667 11.2188 2V10Z" fill="white"/>
<path d="M6.23617 3C4.57529 3 3.24658 4.33333 3.24658 6C3.24658 7.66667 4.57529 9 6.23617 9C7.89705 9 9.22575 7.66667 9.22575 6C9.22575 4.33333 7.89705 3 6.23617 3ZM6.23617 8C5.15659 8 4.24311 7.08333 4.24311 6C4.24311 4.91667 5.15659 4 6.23617 4C7.31574 4 8.22922 4.91667 8.22922 6C8.22922 7.08333 7.31574 8 6.23617 8Z" fill="white"/>
<path d="M9.47481 3.5C9.88759 3.5 10.2222 3.16421 10.2222 2.75C10.2222 2.33579 9.88759 2 9.47481 2C9.06204 2 8.72742 2.33579 8.72742 2.75C8.72742 3.16421 9.06204 3.5 9.47481 3.5Z" fill="white"/>
</g>
<defs>
<clipPath id="clip0_433_144">
<rect width="11.9583" height="12" fill="white" transform="translate(0.256958)"/>
</clipPath>
</defs>
</svg>
