<svg width="13" height="13" viewBox="0 0 13 13" fill="none" xmlns="http://www.w3.org/2000/svg">
<path fill-rule="evenodd" clip-rule="evenodd" d="M3.18797 4.87378H0.502563V12.9596H3.18797V4.87378Z" fill="white"/>
<path fill-rule="evenodd" clip-rule="evenodd" d="M3.36482 2.37255C3.34739 1.57974 2.78166 0.975891 1.863 0.975891C0.944338 0.975891 0.34375 1.57974 0.34375 2.37255C0.34375 3.14894 0.926587 3.77017 1.82814 3.77017H1.8453C2.78166 3.77017 3.36482 3.14894 3.36482 2.37255Z" fill="white"/>
<path fill-rule="evenodd" clip-rule="evenodd" d="M12.8726 8.32348C12.8726 5.83987 11.5478 4.68396 9.7807 4.68396C8.35492 4.68396 7.71658 5.46877 7.36016 6.01933V4.87405H4.67444C4.70983 5.63278 4.67444 12.9599 4.67444 12.9599H7.36016V8.44407C7.36016 8.20241 7.37759 7.96134 7.4486 7.78833C7.64268 7.30555 8.08458 6.8057 8.82648 6.8057C9.79861 6.8057 10.1872 7.54715 10.1872 8.63373V12.9596H12.8725L12.8726 8.32348Z" fill="white"/>
</svg>
