<svg width="77" height="124" viewBox="0 0 77 124" fill="none" xmlns="http://www.w3.org/2000/svg">
<path d="M61.9977 24.8435C66.5277 20.3134 66.5277 12.9688 61.9977 8.43875C57.4677 3.90871 50.123 3.90871 45.593 8.43875C41.063 12.9688 41.0629 20.3134 45.593 24.8435C50.123 29.3735 57.4677 29.3735 61.9977 24.8435Z" fill="url(#paint0_linear_697_84)"/>
<path d="M73.5001 60.1998L54.3001 51.2998L47.0001 31.3998C46.6001 30.3998 46.0001 29.3998 45.1001 28.4998C44.4001 27.7998 41.8001 25.1998 41.0001 24.3998C37.7001 21.0998 32.1001 21.0998 28.6001 24.3998C28.6001 24.3998 21.1001 29.8998 15.6001 35.3998C10.1001 40.8998 3.2001 49.9998 3.2001 49.9998C1.5001 51.6998 0.600098 53.8998 0.600098 56.1998V116.5C0.600098 120.6 3.8001 123.8 7.9001 123.8C12.0001 123.8 15.2001 120.6 15.2001 116.5V68.8998C16.8001 68.5998 18.4001 67.6998 19.7001 66.5998L41.4001 44.8998L45.8001 56.7998C46.2001 58.0998 47.3001 59.0998 48.4001 59.6998L69.5001 69.5998C72.1001 70.7998 75.0001 69.6998 76.3001 67.0998C77.1001 64.3998 76.1001 61.2998 73.5001 60.1998Z" fill="url(#paint1_linear_697_84)"/>
<path d="M74 72.8999H70.5V123.8H74V72.8999Z" fill="url(#paint2_linear_697_84)"/>
<defs>
<linearGradient id="paint0_linear_697_84" x1="45.593" y1="8.43875" x2="61.9977" y2="24.8435" gradientUnits="userSpaceOnUse">
<stop stop-color="#0D90C2"/>
<stop offset="1" stop-color="#005E61"/>
</linearGradient>
<linearGradient id="paint1_linear_697_84" x1="38.5845" y1="21.9248" x2="38.5845" y2="123.8" gradientUnits="userSpaceOnUse">
<stop stop-color="#0D90C2"/>
<stop offset="1" stop-color="#005E61"/>
</linearGradient>
<linearGradient id="paint2_linear_697_84" x1="72.25" y1="72.8999" x2="72.25" y2="123.8" gradientUnits="userSpaceOnUse">
<stop stop-color="#0D90C2"/>
<stop offset="1" stop-color="#005E61"/>
</linearGradient>
</defs>
</svg>
