<svg width="22" height="16" viewBox="0 0 22 16" fill="none" xmlns="http://www.w3.org/2000/svg">
<path fill-rule="evenodd" clip-rule="evenodd" d="M4.22395 2H7.27582C7.7554 2 8.14778 2.3 8.14778 2.66667C8.14778 3.5 8.32217 4.3 8.6448 5.04667C8.74071 5.28 8.67096 5.54 8.42681 5.72667L6.50849 7.19333C7.76412 9.08 9.78707 10.62 12.2547 11.5867L14.173 10.12C14.3474 9.99333 14.5654 9.92667 14.7921 9.92667C14.8793 9.92667 14.9752 9.93333 15.0624 9.96C16.039 10.2067 17.0941 10.34 18.1753 10.34C18.6549 10.34 19.0473 10.64 19.0473 11.0067V13.3333C19.0473 13.7 18.6549 14 18.1753 14C9.98762 14 3.35199 8.92667 3.35199 2.66667C3.35199 2.3 3.74437 2 4.22395 2ZM6.43872 3.33333C6.49104 3.92667 6.62183 4.50667 6.8311 5.06L5.78475 5.86C5.42725 5.06 5.20054 4.21333 5.12206 3.33333H6.43872ZM15.0363 11.3467C15.7774 11.5067 16.536 11.6067 17.3034 11.6467V12.64C16.1524 12.58 15.045 12.4067 13.9899 12.14L15.0363 11.3467Z" fill="#E5E5E5"/>
</svg>
