<svg width="16" height="12" viewBox="0 0 16 12" fill="none" xmlns="http://www.w3.org/2000/svg">
<path fill-rule="evenodd" clip-rule="evenodd" d="M7.69557 3.19219L7.72797 3.71122L7.18793 3.64767C5.22221 3.40404 3.5049 2.57782 2.0468 1.1902L1.33396 0.501686L1.15035 1.01013C0.761521 2.14353 1.00994 3.34048 1.81999 4.14552C2.25202 4.5904 2.15481 4.65396 1.40956 4.38914C1.15035 4.3044 0.923531 4.24085 0.90193 4.27263C0.826325 4.34677 1.08554 5.31069 1.29075 5.69202C1.57157 6.22165 2.14401 6.74068 2.77045 7.04787L3.29968 7.2915L2.67324 7.30209C2.0684 7.30209 2.0468 7.31268 2.11161 7.53512C2.32762 8.22364 3.18088 8.95452 4.13134 9.2723L4.80098 9.49474L4.21774 9.8337C3.35369 10.321 2.33842 10.5964 1.32316 10.6175C0.837126 10.6281 0.4375 10.6705 0.4375 10.7023C0.4375 10.8082 1.75518 11.4014 2.52203 11.6344C4.82258 12.3229 7.55516 12.0264 9.60729 10.8506C11.0654 10.0138 12.5235 8.35075 13.2039 6.74068C13.5711 5.88269 13.9384 4.315 13.9384 3.56293C13.9384 3.07567 13.9708 3.01212 14.5756 2.42953C14.932 2.09056 15.2669 1.71983 15.3317 1.6139C15.4397 1.41264 15.4289 1.41264 14.878 1.59272C13.96 1.91049 13.8304 1.86812 14.284 1.39146C14.6188 1.0525 15.0184 0.438131 15.0184 0.258058C15.0184 0.22628 14.8564 0.279243 14.6728 0.374576C14.4784 0.480501 14.0464 0.639389 13.7224 0.734722L13.1391 0.914795L12.6099 0.565241C12.3183 0.374576 11.9078 0.162725 11.6918 0.0991699C11.141 -0.0491255 10.2985 -0.0279404 9.8017 0.14154C8.45161 0.618204 7.59836 1.84694 7.69557 3.19219Z" fill="white"/>
</svg>
